<svg xmlns="http://www.w3.org/2000/svg" width="400" height="100"><g transform="translate(10 10)"><rect width="80" height="80" fill="#000000" rx="18"/><rect width="80" height="38" fill="#000000" rx="18"/><path fill="none" stroke="#000000" stroke-linecap="round" stroke-opacity=".45" stroke-width="1.75" d="M51.2 17.2a9.2 9.2 0 0 1 10.3 9.1"/><circle cx="60.5" cy="25.5" r="6" fill="#000000" fill-opacity=".2"/><circle cx="60.5" cy="25.5" r="3.75" fill="#000000"/><circle cx="60.5" cy="25.5" r="1.35" fill="#000000"/><path fill="#000000" fill-rule="evenodd" d="M40 19 25.5 58h7.3l3-9.8h8.4l3 9.8h7.3L40 19Zm-2.8 22.5h5.6L40 33.2l-2.8 8.3Z"/></g><path fill="#000000" d="M3.35 0L0.69 0L7.82-19.64L10.72-19.64L17.94 0L15.31 0L11.14-11.65Q10.76-12.74 10.25-14.35Q9.74-15.97 9.02-18.47L9.02-18.47L9.49-18.47Q8.78-15.94 8.26-14.30Q7.74-12.66 7.40-11.65L7.40-11.65L3.35 0ZM14.36-5.48L4.27-5.48L4.27-7.67L14.36-7.67L14.36-5.48Z M26.65 5.83L26.65 5.83Q25.02 5.83 23.83 5.41Q22.63 5.00 21.84 4.31Q21.05 3.63 20.59 2.82L20.59 2.82L22.51 1.58Q22.83 2.00 23.30 2.52Q23.77 3.03 24.56 3.39Q25.36 3.76 26.65 3.76L26.65 3.76Q28.42 3.76 29.56 2.91Q30.70 2.07 30.70 0.25L30.70 0.25L30.70-2.70L30.48-2.70Q30.23-2.28 29.77-1.70Q29.32-1.12 28.47-0.68Q27.62-0.24 26.19-0.24L26.19-0.24Q24.43-0.24 23.01-1.07Q21.60-1.91 20.79-3.52Q19.97-5.13 19.97-7.44L19.97-7.44Q19.97-9.72 20.77-11.40Q21.58-13.08 23.00-14.00Q24.41-14.92 26.24-14.92L26.24-14.92Q27.67-14.92 28.52-14.46Q29.37-13.99 29.83-13.38Q30.29-12.77 30.54-12.38L30.54-12.38L30.77-12.38L30.77-14.74L33.07-14.74L33.07 0.38Q33.07 2.28 32.22 3.49Q31.36 4.69 29.90 5.26Q28.45 5.83 26.65 5.83ZM26.59-2.35L26.59-2.35Q27.93-2.35 28.86-2.96Q29.78-3.57 30.25-4.73Q30.73-5.88 30.73-7.49L30.73-7.49Q30.73-9.06 30.26-10.25Q29.79-11.44 28.87-12.12Q27.95-12.80 26.59-12.80L26.59-12.80Q25.19-12.80 24.25-12.08Q23.32-11.36 22.85-10.16Q22.38-8.96 22.38-7.49L22.38-7.49Q22.38-5.97 22.86-4.81Q23.33-3.65 24.27-3.00Q25.20-2.35 26.59-2.35Z M43.41 0.32L43.41 0.32Q41.27 0.32 39.72-0.63Q38.17-1.58 37.34-3.28Q36.50-4.98 36.50-7.25L36.50-7.25Q36.50-9.52 37.32-11.25Q38.13-12.97 39.63-13.95Q41.13-14.92 43.13-14.92L43.13-14.92Q44.30-14.92 45.44-14.53Q46.58-14.15 47.51-13.28Q48.44-12.42 49.00-11.01Q49.55-9.60 49.55-7.55L49.55-7.55L49.55-6.57L38.11-6.57L38.11-8.57L48.27-8.57L47.16-7.83Q47.16-9.28 46.71-10.41Q46.25-11.54 45.36-12.18Q44.46-12.81 43.13-12.81L43.13-12.81Q41.80-12.81 40.85-12.16Q39.90-11.51 39.40-10.46Q38.90-9.41 38.90-8.21L38.90-8.21L38.90-6.88Q38.90-5.25 39.46-4.11Q40.03-2.97 41.05-2.38Q42.07-1.79 43.42-1.79L43.42-1.79Q44.29-1.79 45.00-2.04Q45.71-2.29 46.23-2.80Q46.74-3.31 47.02-4.06L47.02-4.06L49.31-3.43Q48.97-2.32 48.15-1.48Q47.34-0.63 46.13-0.16Q44.92 0.32 43.41 0.32Z M55.29-8.83L55.29-8.83L55.29 0L52.92 0L52.92-14.74L55.20-14.74L55.22-11.17L54.89-11.17Q55.56-13.21 56.80-14.07Q58.05-14.92 59.72-14.92L59.72-14.92Q61.21-14.92 62.33-14.31Q63.45-13.70 64.08-12.47Q64.71-11.23 64.71-9.36L64.71-9.36L64.71 0L62.33 0L62.33-9.16Q62.33-10.86 61.44-11.83Q60.55-12.79 59.01-12.79L59.01-12.79Q57.96-12.79 57.11-12.33Q56.27-11.87 55.78-10.98Q55.29-10.10 55.29-8.83Z M67.02-14.74L74.64-14.74L74.64-12.71L67.02-12.71L67.02-14.74ZM69.24-3.64L69.24-18.25L71.61-18.25L71.61-3.82Q71.61-2.83 72.01-2.38Q72.42-1.92 73.35-1.92L73.35-1.92Q73.58-1.92 73.93-1.98Q74.28-2.03 74.57-2.08L74.57-2.08L75.05-0.08Q74.68 0.05 74.22 0.12Q73.75 0.18 73.29 0.18L73.29 0.18Q71.37 0.18 70.31-0.82Q69.24-1.83 69.24-3.64L69.24-3.64Z M84.22 0.34L84.22 0.34Q82.10 0.34 80.54-0.34Q78.98-1.03 78.09-2.26Q77.21-3.49 77.09-5.14L77.09-5.14L79.66-5.14Q79.77-4.03 80.41-3.32Q81.06-2.60 82.07-2.25Q83.08-1.90 84.22-1.90L84.22-1.90Q85.56-1.90 86.62-2.33Q87.68-2.77 88.30-3.56Q88.92-4.35 88.92-5.39L88.92-5.39Q88.92-6.34 88.38-6.93Q87.85-7.53 86.97-7.91Q86.08-8.29 85.03-8.58L85.03-8.58L82.66-9.25Q80.28-9.93 78.96-11.18Q77.65-12.43 77.65-14.38L77.65-14.38Q77.65-16.04 78.54-17.29Q79.44-18.54 80.97-19.22Q82.50-19.91 84.40-19.91L84.40-19.91Q86.33-19.91 87.82-19.22Q89.31-18.54 90.18-17.36Q91.04-16.18 91.09-14.69L91.09-14.69L88.64-14.69Q88.47-16.12 87.27-16.91Q86.07-17.69 84.32-17.69L84.32-17.69Q83.05-17.69 82.10-17.28Q81.14-16.86 80.61-16.14Q80.09-15.42 80.09-14.50L80.09-14.50Q80.09-13.47 80.72-12.85Q81.36-12.22 82.24-11.87Q83.12-11.52 83.83-11.32L83.83-11.32L85.79-10.78Q86.58-10.57 87.54-10.20Q88.50-9.83 89.37-9.22Q90.24-8.61 90.80-7.67Q91.36-6.72 91.36-5.35L91.36-5.35Q91.36-3.74 90.52-2.45Q89.68-1.16 88.09-0.41Q86.49 0.34 84.22 0.34Z M93.12-14.74L100.74-14.74L100.74-12.71L93.12-12.71L93.12-14.74ZM95.34-3.64L95.34-18.25L97.71-18.25L97.71-3.82Q97.71-2.83 98.11-2.38Q98.51-1.92 99.45-1.92L99.45-1.92Q99.67-1.92 100.02-1.98Q100.37-2.03 100.66-2.08L100.66-2.08L101.15-0.08Q100.78 0.05 100.31 0.12Q99.84 0.18 99.38 0.18L99.38 0.18Q97.47 0.18 96.40-0.82Q95.34-1.83 95.34-3.64L95.34-3.64Z M109.74 0.32L109.74 0.32Q107.74 0.32 106.23-0.63Q104.72-1.58 103.87-3.30Q103.03-5.01 103.03-7.28L103.03-7.28Q103.03-9.58 103.87-11.30Q104.72-13.03 106.23-13.97Q107.74-14.92 109.74-14.92L109.74-14.92Q111.76-14.92 113.27-13.97Q114.79-13.03 115.63-11.30Q116.48-9.58 116.48-7.28L116.48-7.28Q116.48-5.01 115.63-3.30Q114.79-1.58 113.27-0.63Q111.76 0.32 109.74 0.32ZM109.74-1.81L109.74-1.81Q111.23-1.81 112.19-2.57Q113.16-3.34 113.62-4.58Q114.08-5.83 114.08-7.28L114.08-7.28Q114.08-8.74 113.62-10.00Q113.16-11.26 112.19-12.03Q111.23-12.80 109.74-12.80L109.74-12.80Q108.26-12.80 107.32-12.03Q106.37-11.26 105.90-10.01Q105.44-8.75 105.44-7.28L105.44-7.28Q105.44-5.83 105.90-4.58Q106.37-3.34 107.32-2.57Q108.26-1.81 109.74-1.81Z M122.28 0L119.90 0L119.90-14.74L122.20-14.74L122.20-12.47L122.35-12.47Q122.76-13.59 123.81-14.27Q124.86-14.95 126.18-14.95L126.18-14.95Q126.44-14.95 126.80-14.94Q127.17-14.92 127.38-14.91L127.38-14.91L127.38-12.52Q127.27-12.55 126.85-12.60Q126.43-12.66 125.95-12.66L125.95-12.66Q124.90-12.66 124.06-12.21Q123.22-11.77 122.75-11.00Q122.28-10.23 122.28-9.23L122.28-9.23L122.28 0Z M136.23 0.32L136.23 0.32Q134.10 0.32 132.55-0.63Q131.00-1.58 130.16-3.28Q129.32-4.98 129.32-7.25L129.32-7.25Q129.32-9.52 130.14-11.25Q130.96-12.97 132.46-13.95Q133.95-14.92 135.96-14.92L135.96-14.92Q137.13-14.92 138.27-14.53Q139.41-14.15 140.34-13.28Q141.27-12.42 141.82-11.01Q142.38-9.60 142.38-7.55L142.38-7.55L142.38-6.57L130.93-6.57L130.93-8.57L141.10-8.57L139.99-7.83Q139.99-9.28 139.54-10.41Q139.08-11.54 138.18-12.18Q137.29-12.81 135.96-12.81L135.96-12.81Q134.62-12.81 133.68-12.16Q132.73-11.51 132.23-10.46Q131.72-9.41 131.72-8.21L131.72-8.21L131.72-6.88Q131.72-5.25 132.29-4.11Q132.86-2.97 133.88-2.38Q134.90-1.79 136.25-1.79L136.25-1.79Q137.12-1.79 137.83-2.04Q138.54-2.29 139.05-2.80Q139.57-3.31 139.85-4.06L139.85-4.06L142.14-3.43Q141.80-2.32 140.98-1.48Q140.16-0.63 138.96-0.16Q137.75 0.32 136.23 0.32Z" transform="translate(112 46)"/><path fill="#000000" d="M3.82 0.10L3.82 0.10Q2.89 0.10 2.16-0.35Q1.43-0.81 1.01-1.64Q0.60-2.48 0.60-3.63L0.60-3.63Q0.60-4.79 1.01-5.63Q1.43-6.46 2.16-6.92Q2.89-7.37 3.82-7.37L3.82-7.37Q4.38-7.37 4.87-7.21Q5.36-7.05 5.75-6.74Q6.14-6.43 6.40-5.99Q6.66-5.55 6.76-4.99L6.76-4.99L5.83-4.99Q5.75-5.36 5.56-5.64Q5.38-5.93 5.10-6.12Q4.83-6.32 4.51-6.42Q4.18-6.51 3.82-6.51L3.82-6.51Q3.17-6.51 2.64-6.18Q2.11-5.85 1.81-5.21Q1.50-4.57 1.50-3.63L1.50-3.63Q1.50-2.71 1.81-2.06Q2.12-1.42 2.65-1.09Q3.17-0.76 3.82-0.76L3.82-0.76Q4.18-0.76 4.51-0.86Q4.83-0.96 5.10-1.15Q5.38-1.35 5.56-1.63Q5.75-1.92 5.83-2.29L5.83-2.29L6.76-2.29Q6.67-1.73 6.40-1.29Q6.14-0.85 5.75-0.54Q5.36-0.23 4.87-0.07Q4.38 0.10 3.82 0.10Z M11.29 0.10L11.29 0.10Q10.36 0.10 9.63-0.35Q8.90-0.81 8.48-1.64Q8.06-2.48 8.06-3.63L8.06-3.63Q8.06-4.79 8.48-5.63Q8.90-6.46 9.63-6.92Q10.36-7.37 11.29-7.37L11.29-7.37Q12.23-7.37 12.95-6.92Q13.68-6.46 14.10-5.63Q14.52-4.79 14.52-3.63L14.52-3.63Q14.52-2.48 14.10-1.64Q13.68-0.81 12.95-0.35Q12.23 0.10 11.29 0.10ZM11.29-0.76L11.29-0.76Q11.94-0.76 12.47-1.09Q12.99-1.42 13.30-2.06Q13.61-2.71 13.61-3.63L13.61-3.63Q13.61-4.57 13.30-5.21Q12.99-5.85 12.47-6.18Q11.94-6.51 11.29-6.51L11.29-6.51Q10.64-6.51 10.11-6.18Q9.58-5.85 9.27-5.21Q8.96-4.57 8.96-3.63L8.96-3.63Q8.96-2.71 9.27-2.07Q9.58-1.43 10.11-1.09Q10.64-0.76 11.29-0.76Z M17.03 0L16.15 0L16.15-7.28L17.47-7.28L19.26-2.69Q19.32-2.52 19.40-2.28Q19.49-2.04 19.58-1.76Q19.67-1.47 19.75-1.19Q19.83-0.91 19.90-0.67L19.90-0.67L19.69-0.67Q19.76-0.90 19.84-1.17Q19.92-1.45 20.01-1.74Q20.11-2.02 20.19-2.27Q20.27-2.52 20.33-2.69L20.33-2.69L22.10-7.28L23.43-7.28L23.43 0L22.51 0L22.51-4.16Q22.51-4.38 22.51-4.67Q22.52-4.96 22.52-5.27Q22.53-5.59 22.54-5.92Q22.55-6.25 22.55-6.55L22.55-6.55L22.63-6.55Q22.53-6.22 22.41-5.87Q22.30-5.52 22.19-5.19Q22.08-4.87 21.98-4.60Q21.88-4.33 21.81-4.16L21.81-4.16L20.19 0L19.38 0L17.73-4.16Q17.66-4.33 17.57-4.59Q17.48-4.85 17.37-5.17Q17.26-5.49 17.14-5.84Q17.02-6.20 16.90-6.55L16.90-6.55L16.99-6.55Q17.00-6.28 17.01-5.96Q17.01-5.64 17.02-5.32Q17.02-5.00 17.03-4.69Q17.03-4.39 17.03-4.16L17.03-4.16L17.03 0Z M26.23 0L25.34 0L25.34-7.28L26.66-7.28L28.45-2.69Q28.52-2.52 28.60-2.28Q28.68-2.04 28.77-1.76Q28.86-1.47 28.94-1.19Q29.02-0.91 29.09-0.67L29.09-0.67L28.88-0.67Q28.95-0.90 29.03-1.17Q29.12-1.45 29.21-1.74Q29.30-2.02 29.38-2.27Q29.46-2.52 29.53-2.69L29.53-2.69L31.30-7.28L32.62-7.28L32.62 0L31.71 0L31.71-4.16Q31.71-4.38 31.71-4.67Q31.71-4.96 31.72-5.27Q31.73-5.59 31.73-5.92Q31.74-6.25 31.74-6.55L31.74-6.55L31.82-6.55Q31.72-6.22 31.61-5.87Q31.49-5.52 31.38-5.19Q31.27-4.87 31.17-4.60Q31.08-4.33 31.01-4.16L31.01-4.16L29.38 0L28.58 0L26.93-4.16Q26.86-4.33 26.76-4.59Q26.67-4.85 26.56-5.17Q26.45-5.49 26.33-5.84Q26.22-6.20 26.10-6.55L26.10-6.55L26.18-6.55Q26.19-6.28 26.20-5.96Q26.21-5.64 26.21-5.32Q26.22-5.00 26.22-4.69Q26.23-4.39 26.23-4.16L26.23-4.16L26.23 0Z M39.01 0L34.54 0L34.54-7.28L38.97-7.28L38.97-6.46L35.46-6.46L35.46-4.08L38.73-4.08L38.73-3.26L35.46-3.26L35.46-0.82L39.01-0.82L39.01 0Z M41.63 0L40.71 0L40.71-7.28L43.20-7.28Q44.05-7.28 44.60-6.98Q45.15-6.69 45.41-6.19Q45.68-5.68 45.68-5.03L45.68-5.03Q45.68-4.38 45.41-3.88Q45.15-3.38 44.60-3.10Q44.05-2.82 43.20-2.82L43.20-2.82L41.22-2.82L41.22-3.65L43.16-3.65Q43.73-3.65 44.08-3.82Q44.43-3.98 44.59-4.29Q44.76-4.60 44.76-5.03L44.76-5.03Q44.76-5.46 44.59-5.78Q44.43-6.10 44.08-6.28Q43.73-6.46 43.15-6.46L43.15-6.46L41.63-6.46L41.63 0ZM45.96 0L44.89 0L43.13-3.28L44.17-3.28L45.96 0Z M50.25 0.10L50.25 0.10Q49.31 0.10 48.58-0.35Q47.85-0.81 47.44-1.64Q47.02-2.48 47.02-3.63L47.02-3.63Q47.02-4.79 47.44-5.63Q47.85-6.46 48.58-6.92Q49.31-7.37 50.25-7.37L50.25-7.37Q50.80-7.37 51.29-7.21Q51.78-7.05 52.17-6.74Q52.56-6.43 52.82-5.99Q53.08-5.55 53.18-4.99L53.18-4.99L52.25-4.99Q52.18-5.36 51.99-5.64Q51.80-5.93 51.53-6.12Q51.26-6.32 50.93-6.42Q50.60-6.51 50.25-6.51L50.25-6.51Q49.59-6.51 49.07-6.18Q48.54-5.85 48.23-5.21Q47.92-4.57 47.92-3.63L47.92-3.63Q47.92-2.71 48.23-2.06Q48.54-1.42 49.07-1.09Q49.60-0.76 50.25-0.76L50.25-0.76Q50.60-0.76 50.93-0.86Q51.26-0.96 51.53-1.15Q51.80-1.35 51.99-1.63Q52.18-1.92 52.25-2.29L52.25-2.29L53.18-2.29Q53.09-1.73 52.83-1.29Q52.57-0.85 52.18-0.54Q51.79-0.23 51.29-0.07Q50.80 0.10 50.25 0.10Z M59.24 0L54.77 0L54.77-7.28L59.20-7.28L59.20-6.46L55.70-6.46L55.70-4.08L58.96-4.08L58.96-3.26L55.70-3.26L55.70-0.82L59.24-0.82L59.24 0Z M64.27 0L63.29 0L65.93-7.28L67.00-7.28L69.68 0L68.70 0L67.16-4.32Q67.02-4.72 66.83-5.31Q66.64-5.91 66.37-6.84L66.37-6.84L66.55-6.84Q66.28-5.90 66.09-5.30Q65.90-4.69 65.77-4.32L65.77-4.32L64.27 0ZM68.35-2.03L64.61-2.03L64.61-2.84L68.35-2.84L68.35-2.03Z M70.97-7.28L71.90-7.28L71.90 0L70.97 0L70.97-7.28Z" transform="translate(112 64)"/></svg>