<svg xmlns="http://www.w3.org/2000/svg" width="380" height="100"><defs><linearGradient id="a" x1="0%" x2="100%" y1="0%" y2="100%"><stop offset="0%" stop-color="#4F46E5"/><stop offset="100%" stop-color="#6366F1"/></linearGradient><linearGradient id="b" x1="0%" x2="100%" y1="0%" y2="0%"><stop offset="0%" stop-color="#312E81"/><stop offset="100%" stop-color="#4338CA"/></linearGradient></defs><g transform="translate(10 10)"><rect width="80" height="80" fill="url(#a)" rx="22"/><circle cx="63" cy="17" r="5.5" fill="#34D399"/><circle cx="63" cy="17" r="2.2" fill="#ECFDF5"/><path fill="#FFF" fill-rule="evenodd" d="M40 21 33.5 28.5 28.5 55.5c0 3.6 2.9 6.5 6.5 6.5h10c3.6 0 6.5-2.9 6.5-6.5L46.5 28.5 40 21Zm0 6.2 4.8 8.8H35.2L40 27.2Zm-3.8 12.2h7.6L40 35.8l-3.8 3.6Z"/></g><path fill="url(#b)" d="M3.47 0L0.71 0L8.11-20.37L11.12-20.37L18.61 0L15.87 0L11.55-12.09Q11.16-13.21 10.63-14.88Q10.10-16.56 9.35-19.15L9.35-19.15L9.84-19.15Q9.11-16.53 8.57-14.83Q8.03-13.13 7.67-12.09L7.67-12.09L3.47 0ZM14.89-5.69L4.43-5.69L4.43-7.96L14.89-7.96L14.89-5.69ZM27.67 6.04L27.67 6.04Q25.98 6.04 24.74 5.61Q23.50 5.18 22.68 4.47Q21.86 3.76 21.38 2.93L21.38 2.93L23.38 1.64Q23.71 2.08 24.19 2.61Q24.68 3.14 25.50 3.52Q26.33 3.90 27.67 3.90L27.67 3.90Q29.50 3.90 30.69 3.02Q31.87 2.15 31.87 0.26L31.87 0.26L31.87-2.80L31.64-2.80Q31.38-2.37 30.91-1.76Q30.43-1.16 29.55-0.70Q28.67-0.25 27.19-0.25L27.19-0.25Q25.36-0.25 23.90-1.11Q22.44-1.98 21.59-3.65Q20.74-5.32 20.74-7.71L20.74-7.71Q20.74-10.08 21.57-11.82Q22.41-13.56 23.88-14.52Q25.35-15.48 27.25-15.48L27.25-15.48Q28.72-15.48 29.61-14.99Q30.49-14.51 30.97-13.88Q31.45-13.25 31.71-12.84L31.71-12.84L31.94-12.84L31.94-15.29L34.33-15.29L34.33 0.40Q34.33 2.37 33.44 3.62Q32.55 4.87 31.04 5.46Q29.53 6.04 27.67 6.04ZM27.60-2.43L27.60-2.43Q29.00-2.43 29.96-3.07Q30.91-3.71 31.40-4.90Q31.90-6.10 31.90-7.77L31.90-7.77Q31.90-9.39 31.41-10.63Q30.93-11.87 29.97-12.57Q29.01-13.28 27.60-13.28L27.60-13.28Q26.15-13.28 25.18-12.53Q24.21-11.79 23.73-10.54Q23.24-9.30 23.24-7.77L23.24-7.77Q23.24-6.19 23.73-4.99Q24.23-3.79 25.20-3.11Q26.17-2.43 27.60-2.43ZM45.08 0.33L45.08 0.33Q42.86 0.33 41.25-0.66Q39.65-1.64 38.78-3.40Q37.91-5.17 37.91-7.52L37.91-7.52Q37.91-9.87 38.76-11.66Q39.61-13.45 41.16-14.46Q42.71-15.48 44.79-15.48L44.79-15.48Q46.01-15.48 47.19-15.07Q48.37-14.67 49.33-13.77Q50.30-12.88 50.87-11.42Q51.45-9.95 51.45-7.83L51.45-7.83L51.45-6.81L39.58-6.81L39.58-8.89L50.12-8.89L48.97-8.12Q48.97-9.63 48.50-10.79Q48.03-11.96 47.10-12.63Q46.17-13.29 44.79-13.29L44.79-13.29Q43.41-13.29 42.42-12.61Q41.44-11.94 40.92-10.85Q40.40-9.76 40.40-8.52L40.40-8.52L40.40-7.14Q40.40-5.44 40.99-4.26Q41.58-3.08 42.64-2.47Q43.70-1.86 45.09-1.86L45.09-1.86Q45.99-1.86 46.73-2.12Q47.47-2.38 48.00-2.91Q48.54-3.43 48.82-4.21L48.82-4.21L51.20-3.55Q50.85-2.41 50.00-1.53Q49.15-0.66 47.90-0.16Q46.65 0.33 45.08 0.33ZM57.44-9.16L57.44-9.16L57.44 0L54.97 0L54.97-15.29L57.34-15.29L57.35-11.58L57.01-11.58Q57.71-13.70 59.00-14.59Q60.29-15.48 62.03-15.48L62.03-15.48Q63.57-15.48 64.74-14.84Q65.90-14.21 66.55-12.93Q67.20-11.65 67.20-9.71L67.20-9.71L67.20 0L64.74 0L64.74-9.50Q64.74-11.27 63.81-12.26Q62.89-13.26 61.29-13.26L61.29-13.26Q60.20-13.26 59.32-12.78Q58.45-12.30 57.94-11.39Q57.44-10.47 57.44-9.16ZM69.63-15.29L77.53-15.29L77.53-13.18L69.63-13.18L69.63-15.29ZM71.93-3.77L71.93-18.92L74.39-18.92L74.39-3.96Q74.39-2.94 74.81-2.47Q75.22-2.00 76.19-2.00L76.19-2.00Q76.43-2.00 76.79-2.05Q77.15-2.11 77.45-2.16L77.45-2.16L77.96-0.08Q77.57 0.05 77.09 0.12Q76.60 0.19 76.13 0.19L76.13 0.19Q74.14 0.19 73.04-0.85Q71.93-1.90 71.93-3.77L71.93-3.77ZM87.50 0.36L87.50 0.36Q85.30 0.36 83.68-0.36Q82.06-1.07 81.14-2.34Q80.23-3.62 80.10-5.33L80.10-5.33L82.77-5.33Q82.88-4.18 83.55-3.44Q84.22-2.69 85.26-2.33Q86.31-1.97 87.50-1.97L87.50-1.97Q88.88-1.97 89.98-2.42Q91.08-2.87 91.72-3.69Q92.37-4.51 92.37-5.59L92.37-5.59Q92.37-6.58 91.81-7.19Q91.26-7.81 90.34-8.20Q89.43-8.60 88.33-8.90L88.33-8.90L85.87-9.60Q83.41-10.29 82.04-11.59Q80.68-12.89 80.68-14.92L80.68-14.92Q80.68-16.64 81.61-17.93Q82.54-19.22 84.12-19.93Q85.71-20.64 87.68-20.64L87.68-20.64Q89.69-20.64 91.23-19.93Q92.78-19.22 93.67-18.00Q94.57-16.78 94.62-15.23L94.62-15.23L92.08-15.23Q91.90-16.72 90.66-17.53Q89.41-18.35 87.60-18.35L87.60-18.35Q86.28-18.35 85.29-17.92Q84.30-17.49 83.75-16.74Q83.21-16.00 83.21-15.04L83.21-15.04Q83.21-13.97 83.87-13.32Q84.53-12.67 85.44-12.31Q86.35-11.95 87.09-11.74L87.09-11.74L89.13-11.18Q89.95-10.96 90.94-10.58Q91.93-10.20 92.83-9.56Q93.73-8.93 94.32-7.95Q94.90-6.97 94.90-5.55L94.90-5.55Q94.90-3.88 94.03-2.54Q93.16-1.20 91.51-0.42Q89.85 0.36 87.50 0.36ZM96.76-15.29L104.66-15.29L104.66-13.18L96.76-13.18L96.76-15.29ZM99.05-3.77L99.05-18.92L101.51-18.92L101.51-3.96Q101.51-2.94 101.93-2.47Q102.35-2.00 103.32-2.00L103.32-2.00Q103.55-2.00 103.91-2.05Q104.28-2.11 104.58-2.16L104.58-2.16L105.08-0.08Q104.70 0.05 104.21 0.12Q103.73 0.19 103.25 0.19L103.25 0.19Q101.27 0.19 100.16-0.85Q99.05-1.90 99.05-3.77L99.05-3.77ZM114.02 0.33L114.02 0.33Q111.95 0.33 110.38-0.66Q108.81-1.64 107.94-3.42Q107.06-5.20 107.06-7.55L107.06-7.55Q107.06-9.94 107.94-11.72Q108.81-13.51 110.38-14.49Q111.95-15.48 114.02-15.48L114.02-15.48Q116.12-15.48 117.69-14.49Q119.26-13.51 120.13-11.72Q121.01-9.94 121.01-7.55L121.01-7.55Q121.01-5.20 120.13-3.42Q119.26-1.64 117.69-0.66Q116.12 0.33 114.02 0.33ZM114.02-1.87L114.02-1.87Q115.57-1.87 116.57-2.67Q117.56-3.46 118.04-4.75Q118.52-6.04 118.52-7.55L118.52-7.55Q118.52-9.06 118.04-10.37Q117.56-11.68 116.57-12.48Q115.57-13.28 114.02-13.28L114.02-13.28Q112.49-13.28 111.51-12.48Q110.52-11.68 110.04-10.38Q109.57-9.08 109.57-7.55L109.57-7.55Q109.57-6.04 110.04-4.75Q110.52-3.46 111.51-2.67Q112.49-1.87 114.02-1.87ZM127.05 0L124.59 0L124.59-15.29L126.97-15.29L126.97-12.93L127.13-12.93Q127.56-14.10 128.65-14.80Q129.73-15.50 131.10-15.50L131.10-15.50Q131.37-15.50 131.75-15.49Q132.13-15.48 132.34-15.46L132.34-15.46L132.34-12.99Q132.23-13.02 131.80-13.07Q131.36-13.13 130.87-13.13L130.87-13.13Q129.77-13.13 128.91-12.67Q128.04-12.21 127.54-11.41Q127.05-10.61 127.05-9.57L127.05-9.57L127.05 0ZM141.56 0.33L141.56 0.33Q139.34 0.33 137.74-0.66Q136.13-1.64 135.26-3.40Q134.39-5.17 134.39-7.52L134.39-7.52Q134.39-9.87 135.24-11.66Q136.09-13.45 137.64-14.46Q139.19-15.48 141.27-15.48L141.27-15.48Q142.49-15.48 143.67-15.07Q144.85-14.67 145.82-13.77Q146.78-12.88 147.36-11.42Q147.93-9.95 147.93-7.83L147.93-7.83L147.93-6.81L136.06-6.81L136.06-8.89L146.60-8.89L145.46-8.12Q145.46-9.63 144.98-10.79Q144.51-11.96 143.58-12.63Q142.65-13.29 141.27-13.29L141.27-13.29Q139.89-13.29 138.91-12.61Q137.92-11.94 137.40-10.85Q136.88-9.76 136.88-8.52L136.88-8.52L136.88-7.14Q136.88-5.44 137.47-4.26Q138.06-3.08 139.12-2.47Q140.18-1.86 141.57-1.86L141.57-1.86Q142.47-1.86 143.21-2.12Q143.95-2.38 144.48-2.91Q145.02-3.43 145.30-4.21L145.30-4.21L147.68-3.55Q147.33-2.41 146.48-1.53Q145.63-0.66 144.38-0.16Q143.13 0.33 141.56 0.33Z"/><path fill="#64748B" d="M4.97 0.13L4.97 0.13Q3.76 0.13 2.81-0.46Q1.86-1.05 1.32-2.14Q0.77-3.22 0.77-4.72L0.77-4.72Q0.77-6.23 1.32-7.32Q1.86-8.40 2.81-8.99Q3.76-9.58 4.97-9.58L4.97-9.58Q5.69-9.58 6.33-9.38Q6.96-9.17 7.47-8.76Q7.98-8.36 8.32-7.79Q8.66-7.21 8.79-6.48L8.79-6.48L7.58-6.48Q7.48-6.97 7.23-7.34Q6.99-7.71 6.64-7.96Q6.28-8.21 5.86-8.34Q5.43-8.47 4.97-8.47L4.97-8.47Q4.12-8.47 3.43-8.04Q2.75-7.60 2.35-6.77Q1.95-5.94 1.95-4.72L1.95-4.72Q1.95-3.52 2.35-2.68Q2.75-1.85 3.44-1.42Q4.13-0.99 4.97-0.99L4.97-0.99Q5.43-0.99 5.86-1.12Q6.28-1.25 6.64-1.50Q6.99-1.75 7.23-2.12Q7.48-2.49 7.58-2.98L7.58-2.98L8.79-2.98Q8.66-2.25 8.32-1.68Q7.99-1.11 7.48-0.70Q6.97-0.30 6.33-0.09Q5.69 0.13 4.97 0.13Z M14.55 0.13L14.55 0.13Q13.34 0.13 12.39-0.46Q11.44-1.05 10.90-2.14Q10.35-3.22 10.35-4.72L10.35-4.72Q10.35-6.23 10.90-7.32Q11.44-8.40 12.39-8.99Q13.34-9.58 14.55-9.58L14.55-9.58Q15.77-9.58 16.71-8.99Q17.66-8.40 18.20-7.32Q18.74-6.23 18.74-4.72L18.74-4.72Q18.74-3.22 18.20-2.14Q17.66-1.05 16.71-0.46Q15.77 0.13 14.55 0.13ZM14.55-0.99L14.55-0.99Q15.40-0.99 16.08-1.42Q16.76-1.85 17.16-2.68Q17.57-3.52 17.57-4.72L17.57-4.72Q17.57-5.94 17.16-6.78Q16.76-7.61 16.08-8.04Q15.40-8.47 14.55-8.47L14.55-8.47Q13.70-8.47 13.02-8.04Q12.33-7.60 11.93-6.77Q11.52-5.94 11.52-4.72L11.52-4.72Q11.52-3.52 11.93-2.69Q12.33-1.85 13.02-1.42Q13.70-0.99 14.55-0.99Z M21.89 0L20.74 0L20.74-9.46L22.45-9.46L24.78-3.49Q24.87-3.28 24.97-2.97Q25.07-2.65 25.19-2.29Q25.31-1.92 25.42-1.55Q25.53-1.19 25.61-0.88L25.61-0.88L25.34-0.88Q25.43-1.17 25.54-1.53Q25.65-1.89 25.76-2.26Q25.88-2.63 25.99-2.95Q26.10-3.28 26.18-3.49L26.18-3.49L28.48-9.46L30.20-9.46L30.20 0L29.01 0L29.01-5.40Q29.01-5.69 29.01-6.07Q29.02-6.44 29.03-6.86Q29.04-7.27 29.05-7.69Q29.05-8.12 29.06-8.52L29.06-8.52L29.16-8.52Q29.03-8.08 28.88-7.63Q28.73-7.17 28.59-6.75Q28.45-6.33 28.32-5.98Q28.19-5.63 28.10-5.40L28.10-5.40L25.99 0L24.94 0L22.80-5.40Q22.71-5.62 22.59-5.96Q22.47-6.30 22.32-6.72Q22.18-7.13 22.03-7.59Q21.88-8.06 21.72-8.52L21.72-8.52L21.83-8.52Q21.84-8.16 21.85-7.75Q21.86-7.34 21.87-6.92Q21.88-6.49 21.88-6.10Q21.89-5.71 21.89-5.40L21.89-5.40L21.89 0Z M33.71 0L32.56 0L32.56-9.46L34.28-9.46L36.61-3.49Q36.69-3.28 36.79-2.97Q36.90-2.65 37.02-2.29Q37.13-1.92 37.24-1.55Q37.35-1.19 37.43-0.88L37.43-0.88L37.16-0.88Q37.25-1.17 37.36-1.53Q37.47-1.89 37.59-2.26Q37.70-2.63 37.81-2.95Q37.92-3.28 38.00-3.49L38.00-3.49L40.30-9.46L42.02-9.46L42.02 0L40.83 0L40.83-5.40Q40.83-5.69 40.84-6.07Q40.84-6.44 40.85-6.86Q40.86-7.27 40.87-7.69Q40.88-8.12 40.88-8.52L40.88-8.52L40.99-8.52Q40.85-8.08 40.70-7.63Q40.55-7.17 40.41-6.75Q40.27-6.33 40.14-5.98Q40.01-5.63 39.93-5.40L39.93-5.40L37.81 0L36.76 0L34.62-5.40Q34.53-5.62 34.41-5.96Q34.29-6.30 34.15-6.72Q34.00-7.13 33.85-7.59Q33.70-8.06 33.54-8.52L33.54-8.52L33.65-8.52Q33.67-8.16 33.68-7.75Q33.69-7.34 33.69-6.92Q33.70-6.49 33.70-6.10Q33.71-5.71 33.71-5.40L33.71-5.40L33.71 0Z M50.21 0L44.39 0L44.39-9.46L50.15-9.46L50.15-8.39L45.59-8.39L45.59-5.31L49.84-5.31L49.84-4.24L45.59-4.24L45.59-1.07L50.21-1.07L50.21 0Z M53.49 0L52.28 0L52.28-9.46L55.52-9.46Q56.62-9.46 57.34-9.08Q58.05-8.70 58.40-8.04Q58.74-7.38 58.74-6.54L58.74-6.54Q58.74-5.69 58.40-5.05Q58.05-4.40 57.34-4.03Q56.63-3.67 55.52-3.67L55.52-3.67L52.95-3.67L52.95-4.74L55.47-4.74Q56.21-4.74 56.67-4.96Q57.12-5.18 57.33-5.58Q57.54-5.99 57.54-6.54L57.54-6.54Q57.54-7.10 57.33-7.52Q57.12-7.93 56.67-8.17Q56.21-8.40 55.45-8.40L55.45-8.40L53.49-8.40L53.49 0ZM59.11 0L57.71 0L55.43-4.26L56.79-4.26L59.11 0Z M64.55 0.13L64.55 0.13Q63.34 0.13 62.39-0.46Q61.44-1.05 60.90-2.14Q60.36-3.22 60.36-4.72L60.36-4.72Q60.36-6.23 60.90-7.32Q61.44-8.40 62.39-8.99Q63.34-9.58 64.55-9.58L64.55-9.58Q65.27-9.58 65.91-9.38Q66.55-9.17 67.05-8.76Q67.56-8.36 67.90-7.79Q68.24-7.21 68.37-6.48L68.37-6.48L67.16-6.48Q67.06-6.97 66.82-7.34Q66.57-7.71 66.22-7.96Q65.87-8.21 65.44-8.34Q65.02-8.47 64.55-8.47L64.55-8.47Q63.70-8.47 63.02-8.04Q62.33-7.60 61.93-6.77Q61.53-5.94 61.53-4.72L61.53-4.72Q61.53-3.52 61.93-2.68Q62.34-1.85 63.02-1.42Q63.71-0.99 64.55-0.99L64.55-0.99Q65.02-0.99 65.44-1.12Q65.87-1.25 66.22-1.50Q66.57-1.75 66.82-2.12Q67.06-2.49 67.16-2.98L67.16-2.98L68.37-2.98Q68.25-2.25 67.91-1.68Q67.57-1.11 67.06-0.70Q66.55-0.30 65.91-0.09Q65.28 0.13 64.55 0.13Z M76.12 0L70.30 0L70.30-9.46L76.07-9.46L76.07-8.39L71.51-8.39L71.51-5.31L75.75-5.31L75.75-4.24L71.51-4.24L71.51-1.07L76.12-1.07L76.12 0Z M82.40 0L81.12 0L84.55-9.46L85.95-9.46L89.43 0L88.16 0L86.15-5.61Q85.97-6.13 85.72-6.91Q85.48-7.69 85.13-8.89L85.13-8.89L85.36-8.89Q85.02-7.67 84.77-6.88Q84.52-6.09 84.35-5.61L84.35-5.61L82.40 0ZM87.70-2.64L82.85-2.64L82.85-3.69L87.70-3.69L87.70-2.64Z M90.98-9.46L92.19-9.46L92.19 0L90.98 0L90.98-9.46Z"/></svg>